<svg width="24" height="24" viewBox="0 0 24 24" fill="none" xmlns="http://www.w3.org/2000/svg">
<path id="Instagram" fill-rule="evenodd" clip-rule="evenodd" d="M11.7073 0C8.5278 0 8.12912 0.013477 6.88041 0.070452C5.6343 0.127288 4.78325 0.325213 4.03858 0.614642C3.26872 0.913784 2.61583 1.3141 1.96494 1.96494C1.3141 2.61583 0.913784 3.26872 0.614642 4.03858C0.325213 4.78325 0.127288 5.6343 0.070452 6.88041C0.013477 8.12912 0 8.5278 0 11.7073C0 14.8868 0.013477 15.2855 0.070452 16.5342C0.127288 17.7803 0.325213 18.6314 0.614642 19.3761C0.913784 20.1459 1.3141 20.7988 1.96494 21.4497C2.61583 22.1005 3.26872 22.5009 4.03858 22.8C4.78325 23.0894 5.6343 23.2873 6.88041 23.3442C8.12912 23.4012 8.5278 23.4146 11.7073 23.4146C14.8868 23.4146 15.2855 23.4012 16.5342 23.3442C17.7803 23.2873 18.6314 23.0894 19.3761 22.8C20.1459 22.5009 20.7988 22.1005 21.4497 21.4497C22.1005 20.7988 22.5009 20.1459 22.8 19.3761C23.0894 18.6314 23.2873 17.7803 23.3442 16.5342C23.4012 15.2855 23.4146 14.8868 23.4146 11.7073C23.4146 8.5278 23.4012 8.12912 23.3442 6.88041C23.2873 5.6343 23.0894 4.78325 22.8 4.03858C22.5009 3.26872 22.1005 2.61583 21.4497 1.96494C20.7988 1.3141 20.1459 0.913784 19.3761 0.614642C18.6314 0.325213 17.7803 0.127288 16.5342 0.070452C15.2855 0.013477 14.8868 0 11.7073 0ZM11.7073 2.10939C14.8333 2.10939 15.2036 2.12134 16.4381 2.17766C17.5795 2.22971 18.1994 2.42043 18.612 2.58076C19.1584 2.79314 19.5484 3.04683 19.9581 3.45653C20.3678 3.86619 20.6215 4.25618 20.8338 4.80265C20.9942 5.21518 21.1849 5.83508 21.2369 6.97653C21.2933 8.21102 21.3052 8.58131 21.3052 11.7073C21.3052 14.8333 21.2933 15.2036 21.2369 16.438C21.1849 17.5795 20.9942 18.1994 20.8338 18.6119C20.6215 19.1584 20.3678 19.5484 19.9581 19.958C19.5484 20.3677 19.1584 20.6214 18.612 20.8338C18.1994 20.9941 17.5795 21.1849 16.4381 21.2369C15.2038 21.2932 14.8335 21.3052 11.7073 21.3052C8.5811 21.3052 8.21091 21.2932 6.97656 21.2369C5.8351 21.1849 5.21521 20.9941 4.80268 20.8338C4.25621 20.6214 3.86621 20.3677 3.45656 19.958C3.04691 19.5484 2.79317 19.1584 2.58079 18.6119C2.42046 18.1994 2.22974 17.5795 2.17769 16.438C2.12137 15.2036 2.10942 14.8333 2.10942 11.7073C2.10942 8.58131 2.12137 8.21102 2.17769 6.97653C2.22974 5.83508 2.42046 5.21518 2.58079 4.80265C2.79317 4.25618 3.04686 3.86619 3.45656 3.45653C3.86621 3.04683 4.25621 2.79314 4.80268 2.58076C5.21521 2.42043 5.8351 2.22971 6.97656 2.17766C8.21105 2.12134 8.58134 2.10939 11.7073 2.10939ZM5.69546 11.7075C5.69546 8.38715 8.38704 5.69557 11.7073 5.69557C15.0276 5.69557 17.7192 8.38715 17.7192 11.7075C17.7192 15.0277 15.0276 17.7193 11.7073 17.7193C8.38704 17.7193 5.69546 15.0277 5.69546 11.7075ZM11.7073 15.6098C9.55205 15.6098 7.80488 13.8626 7.80488 11.7074C7.80488 9.55211 9.55205 7.80494 11.7073 7.80494C13.8626 7.80494 15.6098 9.55211 15.6098 11.7074C15.6098 13.8626 13.8626 15.6098 11.7073 15.6098ZM17.9567 6.86283C18.7326 6.86283 19.3616 6.23387 19.3616 5.45797C19.3616 4.68207 18.7326 4.05307 17.9567 4.05307C17.1808 4.05307 16.5518 4.68207 16.5518 5.45797C16.5518 6.23387 17.1808 6.86283 17.9567 6.86283Z" fill="#F5F5F6"/>
</svg>
